<mxfile host="app.diagrams.net" modified="2023-08-22T23:16:05.471Z" agent="Mozilla/5.0 (Macintosh; Intel Mac OS X 10_15_7) AppleWebKit/537.36 (KHTML, like Gecko) Chrome/116.0.0.0 Safari/537.36" etag="tN46lgTweP_y98NGRPg7" version="21.6.9" type="device">
  <diagram id="R2lEEEUBdFMjLlhIrx00" name="Page-1">
    <mxGraphModel dx="715" dy="766" grid="1" gridSize="10" guides="1" tooltips="1" connect="1" arrows="1" fold="1" page="1" pageScale="1" pageWidth="850" pageHeight="1100" math="0" shadow="0" extFonts="Permanent Marker^https://fonts.googleapis.com/css?family=Permanent+Marker">
      <root>
        <mxCell id="0" />
        <mxCell id="1" parent="0" />
        <mxCell id="ihOiu4ystn-O7odWJ-zp-3" value="players" style="shape=table;startSize=30;container=1;collapsible=1;childLayout=tableLayout;fixedRows=1;rowLines=0;fontStyle=1;align=center;resizeLast=1;html=1;" vertex="1" parent="1">
          <mxGeometry x="100" y="310" width="220" height="150" as="geometry" />
        </mxCell>
        <mxCell id="ihOiu4ystn-O7odWJ-zp-4" value="" style="shape=tableRow;horizontal=0;startSize=0;swimlaneHead=0;swimlaneBody=0;fillColor=none;collapsible=0;dropTarget=0;points=[[0,0.5],[1,0.5]];portConstraint=eastwest;top=0;left=0;right=0;bottom=1;" vertex="1" parent="ihOiu4ystn-O7odWJ-zp-3">
          <mxGeometry y="30" width="220" height="30" as="geometry" />
        </mxCell>
        <mxCell id="ihOiu4ystn-O7odWJ-zp-5" value="PK" style="shape=partialRectangle;connectable=0;fillColor=none;top=0;left=0;bottom=0;right=0;fontStyle=1;overflow=hidden;whiteSpace=wrap;html=1;" vertex="1" parent="ihOiu4ystn-O7odWJ-zp-4">
          <mxGeometry width="30" height="30" as="geometry">
            <mxRectangle width="30" height="30" as="alternateBounds" />
          </mxGeometry>
        </mxCell>
        <mxCell id="ihOiu4ystn-O7odWJ-zp-6" value="player Varchar(50) not null" style="shape=partialRectangle;connectable=0;fillColor=none;top=0;left=0;bottom=0;right=0;align=left;spacingLeft=6;fontStyle=5;overflow=hidden;whiteSpace=wrap;html=1;" vertex="1" parent="ihOiu4ystn-O7odWJ-zp-4">
          <mxGeometry x="30" width="190" height="30" as="geometry">
            <mxRectangle width="190" height="30" as="alternateBounds" />
          </mxGeometry>
        </mxCell>
        <mxCell id="ihOiu4ystn-O7odWJ-zp-7" value="" style="shape=tableRow;horizontal=0;startSize=0;swimlaneHead=0;swimlaneBody=0;fillColor=none;collapsible=0;dropTarget=0;points=[[0,0.5],[1,0.5]];portConstraint=eastwest;top=0;left=0;right=0;bottom=0;" vertex="1" parent="ihOiu4ystn-O7odWJ-zp-3">
          <mxGeometry y="60" width="220" height="30" as="geometry" />
        </mxCell>
        <mxCell id="ihOiu4ystn-O7odWJ-zp-8" value="" style="shape=partialRectangle;connectable=0;fillColor=none;top=0;left=0;bottom=0;right=0;editable=1;overflow=hidden;whiteSpace=wrap;html=1;" vertex="1" parent="ihOiu4ystn-O7odWJ-zp-7">
          <mxGeometry width="30" height="30" as="geometry">
            <mxRectangle width="30" height="30" as="alternateBounds" />
          </mxGeometry>
        </mxCell>
        <mxCell id="ihOiu4ystn-O7odWJ-zp-9" value="" style="shape=partialRectangle;connectable=0;fillColor=none;top=0;left=0;bottom=0;right=0;align=left;spacingLeft=6;overflow=hidden;whiteSpace=wrap;html=1;" vertex="1" parent="ihOiu4ystn-O7odWJ-zp-7">
          <mxGeometry x="30" width="190" height="30" as="geometry">
            <mxRectangle width="190" height="30" as="alternateBounds" />
          </mxGeometry>
        </mxCell>
        <mxCell id="ihOiu4ystn-O7odWJ-zp-10" value="" style="shape=tableRow;horizontal=0;startSize=0;swimlaneHead=0;swimlaneBody=0;fillColor=none;collapsible=0;dropTarget=0;points=[[0,0.5],[1,0.5]];portConstraint=eastwest;top=0;left=0;right=0;bottom=0;" vertex="1" parent="ihOiu4ystn-O7odWJ-zp-3">
          <mxGeometry y="90" width="220" height="30" as="geometry" />
        </mxCell>
        <mxCell id="ihOiu4ystn-O7odWJ-zp-11" value="" style="shape=partialRectangle;connectable=0;fillColor=none;top=0;left=0;bottom=0;right=0;editable=1;overflow=hidden;whiteSpace=wrap;html=1;" vertex="1" parent="ihOiu4ystn-O7odWJ-zp-10">
          <mxGeometry width="30" height="30" as="geometry">
            <mxRectangle width="30" height="30" as="alternateBounds" />
          </mxGeometry>
        </mxCell>
        <mxCell id="ihOiu4ystn-O7odWJ-zp-12" value="team Varchar(30) not null" style="shape=partialRectangle;connectable=0;fillColor=none;top=0;left=0;bottom=0;right=0;align=left;spacingLeft=6;overflow=hidden;whiteSpace=wrap;html=1;" vertex="1" parent="ihOiu4ystn-O7odWJ-zp-10">
          <mxGeometry x="30" width="190" height="30" as="geometry">
            <mxRectangle width="190" height="30" as="alternateBounds" />
          </mxGeometry>
        </mxCell>
        <mxCell id="ihOiu4ystn-O7odWJ-zp-13" value="" style="shape=tableRow;horizontal=0;startSize=0;swimlaneHead=0;swimlaneBody=0;fillColor=none;collapsible=0;dropTarget=0;points=[[0,0.5],[1,0.5]];portConstraint=eastwest;top=0;left=0;right=0;bottom=0;" vertex="1" parent="ihOiu4ystn-O7odWJ-zp-3">
          <mxGeometry y="120" width="220" height="30" as="geometry" />
        </mxCell>
        <mxCell id="ihOiu4ystn-O7odWJ-zp-14" value="" style="shape=partialRectangle;connectable=0;fillColor=none;top=0;left=0;bottom=0;right=0;editable=1;overflow=hidden;whiteSpace=wrap;html=1;" vertex="1" parent="ihOiu4ystn-O7odWJ-zp-13">
          <mxGeometry width="30" height="30" as="geometry">
            <mxRectangle width="30" height="30" as="alternateBounds" />
          </mxGeometry>
        </mxCell>
        <mxCell id="ihOiu4ystn-O7odWJ-zp-15" value="" style="shape=partialRectangle;connectable=0;fillColor=none;top=0;left=0;bottom=0;right=0;align=left;spacingLeft=6;overflow=hidden;whiteSpace=wrap;html=1;" vertex="1" parent="ihOiu4ystn-O7odWJ-zp-13">
          <mxGeometry x="30" width="190" height="30" as="geometry">
            <mxRectangle width="190" height="30" as="alternateBounds" />
          </mxGeometry>
        </mxCell>
        <mxCell id="ihOiu4ystn-O7odWJ-zp-17" value="batting" style="shape=table;startSize=30;container=1;collapsible=1;childLayout=tableLayout;fixedRows=1;rowLines=0;fontStyle=1;align=center;resizeLast=1;html=1;" vertex="1" parent="1">
          <mxGeometry x="425" y="50" width="275" height="310" as="geometry" />
        </mxCell>
        <mxCell id="ihOiu4ystn-O7odWJ-zp-18" value="" style="shape=tableRow;horizontal=0;startSize=0;swimlaneHead=0;swimlaneBody=0;fillColor=none;collapsible=0;dropTarget=0;points=[[0,0.5],[1,0.5]];portConstraint=eastwest;top=0;left=0;right=0;bottom=1;" vertex="1" parent="ihOiu4ystn-O7odWJ-zp-17">
          <mxGeometry y="30" width="275" height="50" as="geometry" />
        </mxCell>
        <mxCell id="ihOiu4ystn-O7odWJ-zp-19" value="PK,FK&lt;br&gt;PK" style="shape=partialRectangle;connectable=0;fillColor=none;top=0;left=0;bottom=0;right=0;fontStyle=1;overflow=hidden;whiteSpace=wrap;html=1;" vertex="1" parent="ihOiu4ystn-O7odWJ-zp-18">
          <mxGeometry width="45" height="50" as="geometry">
            <mxRectangle width="45" height="50" as="alternateBounds" />
          </mxGeometry>
        </mxCell>
        <mxCell id="ihOiu4ystn-O7odWJ-zp-20" value="player varchar(50) not null&lt;br&gt;&lt;p style=&quot;margin: 0.0px 0.0px 0.0px 0.0px&quot;&gt;&lt;font style=&quot;font-variant-numeric: normal; font-variant-east-asian: normal; font-variant-alternates: normal; font-kerning: auto; font-optical-sizing: auto; font-feature-settings: normal; font-variation-settings: normal; font-stretch: normal; line-height: normal; font-family: &amp;quot;Helvetica Neue&amp;quot;; font-variant-ligatures: common-ligatures; font-size: 13px;&quot; color=&quot;#000000&quot; face=&quot;Helvetica Neue&quot;&gt;tournament varchar(10) not null&lt;/font&gt;&lt;/p&gt;" style="shape=partialRectangle;connectable=0;fillColor=none;top=0;left=0;bottom=0;right=0;align=left;spacingLeft=6;fontStyle=5;overflow=hidden;whiteSpace=wrap;html=1;" vertex="1" parent="ihOiu4ystn-O7odWJ-zp-18">
          <mxGeometry x="45" width="230" height="50" as="geometry">
            <mxRectangle width="230" height="50" as="alternateBounds" />
          </mxGeometry>
        </mxCell>
        <mxCell id="ihOiu4ystn-O7odWJ-zp-21" value="" style="shape=tableRow;horizontal=0;startSize=0;swimlaneHead=0;swimlaneBody=0;fillColor=none;collapsible=0;dropTarget=0;points=[[0,0.5],[1,0.5]];portConstraint=eastwest;top=0;left=0;right=0;bottom=0;" vertex="1" parent="ihOiu4ystn-O7odWJ-zp-17">
          <mxGeometry y="80" width="275" height="30" as="geometry" />
        </mxCell>
        <mxCell id="ihOiu4ystn-O7odWJ-zp-22" value="" style="shape=partialRectangle;connectable=0;fillColor=none;top=0;left=0;bottom=0;right=0;editable=1;overflow=hidden;whiteSpace=wrap;html=1;" vertex="1" parent="ihOiu4ystn-O7odWJ-zp-21">
          <mxGeometry width="45" height="30" as="geometry">
            <mxRectangle width="45" height="30" as="alternateBounds" />
          </mxGeometry>
        </mxCell>
        <mxCell id="ihOiu4ystn-O7odWJ-zp-23" value="matches int not null&lt;span style=&quot;white-space: pre;&quot;&gt;&#x9;&lt;/span&gt;" style="shape=partialRectangle;connectable=0;fillColor=none;top=0;left=0;bottom=0;right=0;align=left;spacingLeft=6;overflow=hidden;whiteSpace=wrap;html=1;" vertex="1" parent="ihOiu4ystn-O7odWJ-zp-21">
          <mxGeometry x="45" width="230" height="30" as="geometry">
            <mxRectangle width="230" height="30" as="alternateBounds" />
          </mxGeometry>
        </mxCell>
        <mxCell id="ihOiu4ystn-O7odWJ-zp-24" value="" style="shape=tableRow;horizontal=0;startSize=0;swimlaneHead=0;swimlaneBody=0;fillColor=none;collapsible=0;dropTarget=0;points=[[0,0.5],[1,0.5]];portConstraint=eastwest;top=0;left=0;right=0;bottom=0;" vertex="1" parent="ihOiu4ystn-O7odWJ-zp-17">
          <mxGeometry y="110" width="275" height="200" as="geometry" />
        </mxCell>
        <mxCell id="ihOiu4ystn-O7odWJ-zp-25" value="" style="shape=partialRectangle;connectable=0;fillColor=none;top=0;left=0;bottom=0;right=0;editable=1;overflow=hidden;whiteSpace=wrap;html=1;" vertex="1" parent="ihOiu4ystn-O7odWJ-zp-24">
          <mxGeometry width="45" height="200" as="geometry">
            <mxRectangle width="45" height="200" as="alternateBounds" />
          </mxGeometry>
        </mxCell>
        <mxCell id="ihOiu4ystn-O7odWJ-zp-26" value="batting_innings int&lt;br&gt;not_outs int&lt;br&gt;runs_scored int&lt;br&gt;highest_score int&lt;br&gt;batting_avg float&lt;br&gt;balls_faced int&lt;br&gt;100 int&lt;br&gt;50 int&lt;br&gt;0 int&lt;br&gt;4s int&lt;br&gt;6s int&amp;nbsp;&lt;br&gt;catches int not null&lt;br&gt;stumpings int not null" style="shape=partialRectangle;connectable=0;fillColor=none;top=0;left=0;bottom=0;right=0;align=left;spacingLeft=6;overflow=hidden;whiteSpace=wrap;html=1;" vertex="1" parent="ihOiu4ystn-O7odWJ-zp-24">
          <mxGeometry x="45" width="230" height="200" as="geometry">
            <mxRectangle width="230" height="200" as="alternateBounds" />
          </mxGeometry>
        </mxCell>
        <mxCell id="ihOiu4ystn-O7odWJ-zp-32" value="bowling" style="shape=table;startSize=30;container=1;collapsible=1;childLayout=tableLayout;fixedRows=1;rowLines=0;fontStyle=1;align=center;resizeLast=1;html=1;" vertex="1" parent="1">
          <mxGeometry x="425" y="390" width="275" height="292" as="geometry" />
        </mxCell>
        <mxCell id="ihOiu4ystn-O7odWJ-zp-33" value="" style="shape=tableRow;horizontal=0;startSize=0;swimlaneHead=0;swimlaneBody=0;fillColor=none;collapsible=0;dropTarget=0;points=[[0,0.5],[1,0.5]];portConstraint=eastwest;top=0;left=0;right=0;bottom=1;" vertex="1" parent="ihOiu4ystn-O7odWJ-zp-32">
          <mxGeometry y="30" width="275" height="50" as="geometry" />
        </mxCell>
        <mxCell id="ihOiu4ystn-O7odWJ-zp-34" value="PK,FK&lt;br&gt;PK" style="shape=partialRectangle;connectable=0;fillColor=none;top=0;left=0;bottom=0;right=0;fontStyle=1;overflow=hidden;whiteSpace=wrap;html=1;" vertex="1" parent="ihOiu4ystn-O7odWJ-zp-33">
          <mxGeometry width="45" height="50" as="geometry">
            <mxRectangle width="45" height="50" as="alternateBounds" />
          </mxGeometry>
        </mxCell>
        <mxCell id="ihOiu4ystn-O7odWJ-zp-35" value="player varchar(50) not null&lt;br&gt;&lt;p style=&quot;margin: 0.0px 0.0px 0.0px 0.0px&quot;&gt;&lt;font style=&quot;font-variant-numeric: normal; font-variant-east-asian: normal; font-variant-alternates: normal; font-kerning: auto; font-optical-sizing: auto; font-feature-settings: normal; font-variation-settings: normal; font-stretch: normal; line-height: normal; font-family: &amp;quot;Helvetica Neue&amp;quot;; font-variant-ligatures: common-ligatures; font-size: 13px;&quot; color=&quot;#000000&quot; face=&quot;Helvetica Neue&quot;&gt;tournament varchar(10) not null&lt;/font&gt;&lt;/p&gt;" style="shape=partialRectangle;connectable=0;fillColor=none;top=0;left=0;bottom=0;right=0;align=left;spacingLeft=6;fontStyle=5;overflow=hidden;whiteSpace=wrap;html=1;" vertex="1" parent="ihOiu4ystn-O7odWJ-zp-33">
          <mxGeometry x="45" width="230" height="50" as="geometry">
            <mxRectangle width="230" height="50" as="alternateBounds" />
          </mxGeometry>
        </mxCell>
        <mxCell id="ihOiu4ystn-O7odWJ-zp-36" value="" style="shape=tableRow;horizontal=0;startSize=0;swimlaneHead=0;swimlaneBody=0;fillColor=none;collapsible=0;dropTarget=0;points=[[0,0.5],[1,0.5]];portConstraint=eastwest;top=0;left=0;right=0;bottom=0;" vertex="1" parent="ihOiu4ystn-O7odWJ-zp-32">
          <mxGeometry y="80" width="275" height="212" as="geometry" />
        </mxCell>
        <mxCell id="ihOiu4ystn-O7odWJ-zp-37" value="" style="shape=partialRectangle;connectable=0;fillColor=none;top=0;left=0;bottom=0;right=0;editable=1;overflow=hidden;whiteSpace=wrap;html=1;" vertex="1" parent="ihOiu4ystn-O7odWJ-zp-36">
          <mxGeometry width="45" height="212" as="geometry">
            <mxRectangle width="45" height="212" as="alternateBounds" />
          </mxGeometry>
        </mxCell>
        <mxCell id="ihOiu4ystn-O7odWJ-zp-38" value="bowling_innings int&lt;br style=&quot;border-color: var(--border-color);&quot;&gt;overs float&lt;br style=&quot;border-color: var(--border-color);&quot;&gt;maidens int&lt;br style=&quot;border-color: var(--border-color);&quot;&gt;runs_conceded int&lt;br style=&quot;border-color: var(--border-color);&quot;&gt;wickets int&lt;br style=&quot;border-color: var(--border-color);&quot;&gt;best varchar(10)&lt;br style=&quot;border-color: var(--border-color);&quot;&gt;avg float&lt;br style=&quot;border-color: var(--border-color);&quot;&gt;economy float&lt;br style=&quot;border-color: var(--border-color);&quot;&gt;4Ws int&lt;br&gt;5Ws int&lt;br&gt;catches int&lt;br&gt;" style="shape=partialRectangle;connectable=0;fillColor=none;top=0;left=0;bottom=0;right=0;align=left;spacingLeft=6;overflow=hidden;whiteSpace=wrap;html=1;" vertex="1" parent="ihOiu4ystn-O7odWJ-zp-36">
          <mxGeometry x="45" width="230" height="212" as="geometry">
            <mxRectangle width="230" height="212" as="alternateBounds" />
          </mxGeometry>
        </mxCell>
        <mxCell id="ihOiu4ystn-O7odWJ-zp-51" value="" style="edgeStyle=entityRelationEdgeStyle;fontSize=12;html=1;endArrow=ERoneToMany;rounded=0;exitX=1;exitY=0.5;exitDx=0;exitDy=0;entryX=-0.018;entryY=0.34;entryDx=0;entryDy=0;entryPerimeter=0;" edge="1" parent="1" source="ihOiu4ystn-O7odWJ-zp-4" target="ihOiu4ystn-O7odWJ-zp-18">
          <mxGeometry width="100" height="100" relative="1" as="geometry">
            <mxPoint x="380" y="460" as="sourcePoint" />
            <mxPoint x="480" y="360" as="targetPoint" />
          </mxGeometry>
        </mxCell>
        <mxCell id="ihOiu4ystn-O7odWJ-zp-52" value="" style="edgeStyle=entityRelationEdgeStyle;fontSize=12;html=1;endArrow=ERoneToMany;rounded=0;exitX=1;exitY=0.5;exitDx=0;exitDy=0;entryX=-0.022;entryY=0.34;entryDx=0;entryDy=0;entryPerimeter=0;" edge="1" parent="1" source="ihOiu4ystn-O7odWJ-zp-4" target="ihOiu4ystn-O7odWJ-zp-33">
          <mxGeometry width="100" height="100" relative="1" as="geometry">
            <mxPoint x="380" y="460" as="sourcePoint" />
            <mxPoint x="480" y="360" as="targetPoint" />
          </mxGeometry>
        </mxCell>
      </root>
    </mxGraphModel>
  </diagram>
</mxfile>
